<?xml version="1.0" standalone="no"?>
<!DOCTYPE svg PUBLIC "-//W3C//DTD SVG 20010904//EN"
 "http://www.w3.org/TR/2001/REC-SVG-20010904/DTD/svg10.dtd">
<svg version="1.0" xmlns="http://www.w3.org/2000/svg"
 width="512.000000pt" height="512.000000pt" viewBox="0 0 512.000000 512.000000"
 preserveAspectRatio="xMidYMid meet">

<g transform="translate(0.000000,512.000000) scale(0.100000,-0.100000)"
fill="#000000" stroke="none">
<path d="M1137 4829 c-47 -27 -47 -25 -47 -929 l0 -851 -31 17 c-133 68 -348
70 -489 3 -82 -39 -130 -77 -186 -151 -65 -86 -76 -118 -82 -234 -4 -93 -2
-106 21 -156 13 -31 35 -63 48 -72 402 -287 572 -395 727 -459 158 -65 296
-83 409 -54 l52 14 -34 -61 c-177 -316 -160 -683 46 -994 442 -672 1598 -951
2560 -616 471 164 828 474 959 833 l30 82 0 234 0 234 -30 82 c-68 187 -178
337 -375 513 l-30 27 168 -7 c159 -6 169 -5 165 12 -3 17 -23 25 -99 38 l-37
6 1 180 c0 126 3 180 11 183 15 6 78 -15 112 -38 14 -9 35 -32 46 -51 13 -22
27 -34 37 -32 13 3 16 17 14 87 -1 45 -4 85 -7 89 -4 3 -160 5 -349 3 -326 -2
-343 -3 -356 -21 -8 -12 -25 -20 -43 -20 -32 0 -39 12 -92 162 -42 118 -155
288 -191 288 -35 0 -198 -219 -252 -337 -14 -32 -27 -59 -28 -61 -1 -1 -80 36
-176 83 l-173 85 201 0 c231 0 208 -12 220 118 5 62 4 72 -10 72 -9 0 -23 -13
-31 -28 -21 -40 -122 -105 -166 -106 -34 -1 -35 0 -34 37 0 20 1 104 2 186 l2
149 60 7 c46 5 60 11 60 23 0 15 -24 17 -247 17 -225 -1 -248 -2 -251 -18 -3
-14 5 -17 42 -17 70 0 71 -3 70 -204 -1 -98 -6 -182 -11 -187 -5 -5 -33 1 -66
13 -45 16 -55 23 -43 30 30 17 18 37 -25 44 -46 8 -49 12 -103 166 -42 118
-155 288 -191 288 -35 0 -172 -181 -246 -325 -28 -56 -51 -89 -60 -88 -8 1
-26 5 -41 9 -23 5 -28 3 -28 -14 0 -23 -41 -35 -77 -21 -22 8 -24 14 -21 71
l3 63 51 6 c28 4 59 11 70 17 86 47 98 159 22 229 -39 35 -92 43 -311 43 -193
0 -208 -1 -205 -17 2 -13 15 -19 45 -21 23 -2 46 -9 52 -16 8 -9 11 -73 9
-192 l-3 -179 -55 -10 c-37 -7 -56 -16 -58 -27 -3 -14 15 -15 172 -10 97 3
176 2 176 -1 0 -3 -21 -17 -46 -32 -66 -38 -185 -155 -265 -258 -38 -49 -123
-175 -190 -280 -205 -324 -282 -408 -412 -449 -161 -51 -385 24 -709 238 -71
47 -128 86 -128 88 0 2 53 1 118 -2 191 -7 294 29 408 142 110 110 104 67 104
751 0 320 3 584 6 588 10 9 111 -45 181 -97 102 -74 186 -196 233 -334 l21
-64 -31 -47 c-36 -57 -39 -107 -10 -144 25 -31 69 -42 114 -27 69 23 176 209
222 388 81 312 7 567 -218 748 -35 28 -115 87 -178 130 -178 121 -295 251
-337 376 -7 24 -23 51 -35 61 -23 19 -92 23 -121 6z m1365 -1376 c61 -54 38
-183 -32 -183 -25 0 -28 4 -34 53 -8 69 -8 142 1 150 9 9 44 -2 65 -20z m313
-210 c37 -55 34 -63 -29 -63 -30 0 -58 5 -61 10 -8 14 35 90 51 90 8 0 25 -17
39 -37z m45 -113 c8 -5 12 -11 10 -13 -11 -8 -180 6 -174 14 7 12 145 11 164
-1z m1105 -247 c37 -55 34 -63 -29 -63 -30 0 -58 5 -61 10 -8 14 35 90 51 90
8 0 25 -17 39 -37z m50 -119 c22 -22 15 -37 -26 -51 -20 -6 -33 -17 -33 -26 1
-11 -13 -7 -57 16 -54 29 -71 52 -52 70 3 4 39 7 79 7 53 0 77 -4 89 -16z
m596 -78 c5 -72 2 -336 -3 -336 -4 0 -32 16 -63 35 l-55 36 0 128 0 129 28 10
c55 22 91 21 93 -2z m-367 -16 c-5 -5 -49 -20 -97 -32 l-87 -23 -44 25 c-25
13 -43 28 -40 32 3 4 67 8 142 8 90 0 133 -3 126 -10z m-593 -65 c52 -8 128
-21 167 -30 l72 -17 0 -227 0 -228 -52 0 c-63 1 -122 -28 -156 -77 -32 -48
-31 -138 3 -188 14 -21 35 -43 47 -49 100 -53 231 -7 258 91 5 19 10 141 10
271 l0 235 92 27 c105 30 97 32 221 -47 55 -35 57 -38 57 -81 l0 -44 -33 6
c-115 18 -214 -91 -188 -207 13 -57 35 -86 83 -111 51 -26 135 -23 175 7 64
48 82 100 83 232 0 45 3 82 6 82 4 0 64 -36 134 -80 141 -89 204 -148 280
-267 191 -297 187 -651 -11 -952 -207 -315 -631 -568 -1105 -660 -60 -12 -117
-23 -126 -25 -34 -8 -17 4 59 39 175 81 349 223 462 380 205 283 279 610 216
964 -8 47 -22 104 -31 128 l-17 43 -54 0 c-60 0 -132 31 -172 74 -14 14 -27
26 -31 26 -3 0 -12 -21 -19 -46 -24 -79 -69 -135 -139 -171 -110 -57 -222 -35
-306 58 -51 57 -66 98 -66 180 0 108 94 228 192 244 l38 7 0 147 0 147 -28 16
c-46 27 -176 76 -274 103 l-93 25 75 -6 c41 -3 118 -12 171 -19z m-815 -14
c-3 -5 -18 -12 -32 -15 -15 -4 -69 -27 -121 -51 -246 -115 -463 -328 -580
-568 -71 -146 -101 -254 -122 -442 -23 -205 29 -468 133 -670 97 -189 292
-391 480 -497 49 -28 49 -29 16 -22 -74 14 -270 88 -381 143 -466 232 -729
581 -729 966 0 516 495 977 1225 1139 61 13 111 25 113 25 2 1 1 -3 -2 -8z
m392 -433 c17 -17 15 -49 -5 -64 -10 -7 -38 -14 -63 -14 -217 -2 -441 -147
-548 -355 -35 -66 -72 -198 -72 -254 0 -77 -25 -105 -71 -80 -20 10 -21 16
-15 90 8 98 44 214 94 305 67 123 215 260 339 316 124 55 311 86 341 56z
m-648 -78 c13 -24 10 -28 -45 -95 -126 -151 -192 -315 -210 -518 -8 -85 -25
-108 -65 -87 -17 9 -20 21 -20 74 0 196 95 434 241 599 45 52 81 61 99 27z
m750 -247 c114 -32 217 -124 274 -243 29 -60 31 -73 31 -175 0 -107 -1 -112
-37 -185 -137 -279 -493 -340 -707 -122 -135 138 -165 321 -82 494 56 117 150
198 271 232 99 27 147 27 250 -1z m614 -464 c-2 -121 -50 -255 -134 -379 -71
-103 -117 -131 -144 -87 -13 20 -6 32 60 119 79 103 118 204 130 335 8 92 31
125 67 100 20 -13 22 -23 21 -88z m201 78 c16 -13 17 -24 12 -113 -27 -454
-409 -835 -883 -880 -82 -7 -114 4 -114 40 0 36 17 43 117 49 197 14 384 100
533 247 164 160 242 329 266 575 9 93 26 113 69 82z"/>
<path d="M3174 1490 c-26 -10 -54 -48 -54 -72 0 -47 42 -88 91 -88 32 0 69 44
69 83 0 59 -54 97 -106 77z"/>
</g>
</svg>
